<svg version="1" xmlns="http://www.w3.org/2000/svg" width="933.333" height="933.333" viewBox="0 0 700.000000 700.000000"><path d="M423 180.9c-41 9.8-95.6 22.9-121.4 29.1-31.3 7.4-47.9 11.8-50.1 13.3-1.8 1.1-4.3 3.7-5.6 5.6l-2.4 3.5-.3 96.3c-.1 53-.4 96.3-.6 96.3-.2 0-3.3-1.4-7-3-17.7-8.1-41.6-8-62.6.1-13.3 5.1-22.6 11.3-33.6 22.3-8.9 9-10.6 11.3-15.1 20.6-5.9 12.1-7.6 18.6-7.7 29-.1 18.7 8.8 34.7 24.8 45.2 17.4 11.3 46 12.9 69.3 3.9 21.4-8.3 40.3-25 49.6-43.6 7.5-15 7.1-8 7.4-115.3.2-52.9.6-96.2 1-96.2.3 0 17.5-4 38.2-8.9 20.7-4.9 71.1-16.9 112.1-26.6 41-9.7 75.3-17.9 76.3-18.1 1.6-.5 1.7 3.6 1.7 76v76.5l-6.5-3c-24.3-11-57.4-6.9-82.7 10.2-22 14.9-35.2 36.1-36.5 58.9-1 16.3 3.6 28.8 14.8 40.2 11.3 11.6 27.4 17.7 46.6 17.8 40.5.1 77.4-26.8 88-64.2 1.7-5.9 1.8-14.2 1.8-137.8 0-131.1 0-131.5-2.1-135.4-1.1-2.2-3.7-5.4-5.8-7-7.2-5.9-7.8-5.8-91.6 14.3z"/></svg>